<svg width="52" height="51" viewBox="0 0 52 51" fill="none" xmlns="http://www.w3.org/2000/svg">
<path d="M51.9044 12.0825C51.7254 11.4297 51.2887 10.8731 50.6912 10.5357C50.0933 10.1966 49.3824 10.1049 48.7156 10.2804C48.0495 10.4564 47.4821 10.8843 47.1381 11.4704L46.7048 12.21C46.2931 11.978 45.7671 12.1145 45.5263 12.5163L43.3252 16.1964L42.5711 15.7714C42.3714 15.6581 42.1336 15.6274 41.911 15.6863C41.688 15.7457 41.4984 15.8893 41.3838 16.086C41.1489 16.4923 41.292 17.0086 41.7045 17.2419L42.4586 17.6669L35.0925 30.1874L33.2726 34.9562L32.406 36.5454C31.8986 37.4111 31.9528 38.4873 32.5447 39.2996L30.5949 41.6454L30.0491 40.3027C29.8028 39.7042 29.2328 39.2942 28.5774 39.2439C27.9215 39.1933 27.2931 39.5112 26.955 40.0645L26.6432 40.5829L26.3487 37.1829C26.281 36.3785 25.6458 35.7319 24.8292 35.6348C24.0121 35.5381 23.2386 36.0183 22.9775 36.7836L20.8457 43.0565C20.6968 43.5002 20.9405 43.9783 21.3916 44.1277C21.4762 44.1663 21.5672 44.1895 21.6603 44.1954C22.0326 44.1966 22.3644 43.9638 22.4837 43.6176L24.6066 37.3447L24.91 40.7954C24.9726 41.5316 25.5121 42.1438 26.2458 42.3107C26.9796 42.4775 27.7387 42.1604 28.125 41.5267L28.4458 41.0079L28.9832 42.3426C29.2112 42.905 29.727 43.3063 30.3376 43.3956C30.9482 43.4848 31.5609 43.2487 31.9468 42.7759L33.9661 40.2687C34.1895 40.3259 34.4197 40.3546 34.6507 40.3538C35.5795 40.3608 36.4419 39.881 36.9124 39.0954L37.779 37.6759L41.0808 33.7405L48.5247 21.0669L49.2788 21.4919C49.4798 21.6048 49.6262 21.7911 49.6858 22.0107C49.7459 22.2286 49.7146 22.461 49.5995 22.6565L46.1331 28.5471C46.0024 28.7405 45.9579 28.978 46.0104 29.2046C46.0629 29.4308 46.2072 29.6262 46.4103 29.7454C46.61 29.8591 46.8478 29.8898 47.0704 29.8309C47.2934 29.7715 47.483 29.6279 47.5976 29.4312L51.064 23.5405C51.4097 22.9541 51.5032 22.2568 51.3238 21.6027C51.1444 20.9494 50.7081 20.3929 50.1107 20.0554L49.3566 19.6304L51.5231 15.9499C51.7597 15.546 51.6204 15.0306 51.2113 14.794L51.6446 14.0544C51.9996 13.4588 52.0935 12.7474 51.9044 12.0825ZM48.6373 12.3204C48.752 12.1236 48.9424 11.9796 49.1662 11.9211C49.3888 11.8671 49.6241 11.8974 49.8246 12.0062C50.0256 12.1187 50.172 12.3054 50.2321 12.5246C50.2871 12.7429 50.2562 12.9736 50.1454 13.1704L49.7121 13.91L48.204 13.06L48.6373 12.3204ZM36.8257 36.0527L36.3924 35.8062L35.1098 35.0749L36.3403 31.845L39.07 33.3919L36.8257 36.0527ZM34.2259 38.5089C33.8599 38.2586 33.7473 37.7772 33.9661 37.3954L34.3994 36.6562L35.907 37.5062L35.4737 38.2371C35.3523 38.4437 35.1483 38.5907 34.911 38.6425C34.6736 38.694 34.4252 38.6459 34.2259 38.5089ZM40.0581 31.9982L37.0597 30.2982L43.9924 18.5169L46.9908 20.2169L40.0581 31.9982ZM47.8574 18.7464L44.859 17.0464L46.5922 14.1054L49.5906 15.8054L47.8574 18.7464Z" fill="#FFBB01"/>
<path d="M13.6741 38.0885L10.6071 41.0893L8.77005 39.2872C8.432 38.9576 7.88622 38.9576 7.54817 39.2872C7.38401 39.4469 7.29178 39.664 7.29178 39.8906C7.29178 40.1172 7.38401 40.3347 7.54817 40.4941L9.38522 42.2962C9.71016 42.6124 10.1493 42.7897 10.6071 42.7892C11.0674 42.7917 11.5104 42.6145 11.8375 42.2962L14.896 39.2872C15.1904 38.9497 15.1705 38.4471 14.8507 38.1334C14.5304 37.8192 14.0181 37.7997 13.6741 38.0885Z" fill="#FFBB01"/>
<path d="M3.466 40.375C3.466 44.3656 6.76398 47.6 10.8321 47.6C14.9002 47.6 18.1981 44.3656 18.1981 40.375C18.1981 39.9056 17.8101 39.525 17.3315 39.525C16.853 39.525 16.4649 39.9056 16.4649 40.375C16.4649 43.4264 13.943 45.9 10.8321 45.9C7.72113 45.9 5.1992 43.4264 5.1992 40.375C5.1992 37.3236 7.72113 34.85 10.8321 34.85C12.0516 34.8467 13.2385 35.2347 14.2117 35.9552C14.5947 36.237 15.138 36.1607 15.4249 35.7851C15.7122 35.4095 15.6347 34.877 15.2518 34.5951C13.0197 32.9532 10.0332 32.6893 7.53791 33.9128C5.04221 35.1368 3.466 37.6386 3.466 40.375Z" fill="#FFBB01"/>
<path d="M31.1975 6.79998C31.6761 6.79998 32.0641 6.4198 32.0641 5.94998C32.0641 5.48057 31.6761 5.09998 31.1975 5.09998H8.66604C8.18746 5.09998 7.79944 5.48057 7.79944 5.94998V9.34998C7.79944 9.8198 8.18746 10.2 8.66604 10.2H31.1975C31.6761 10.2 32.0641 9.8198 32.0641 9.34998C32.0641 8.88057 31.6761 8.49998 31.1975 8.49998H9.53263V6.79998H31.1975Z" fill="#FFBB01"/>
<path d="M11.2659 11.9C10.7873 11.9 10.3993 12.2806 10.3993 12.75C10.3993 13.2198 10.7873 13.6 11.2659 13.6H28.5978C29.0764 13.6 29.4644 13.2198 29.4644 12.75C29.4644 12.2806 29.0764 11.9 28.5978 11.9H11.2659Z" fill="#FFBB01"/>
<path d="M33.7975 17.8499H14.7323C14.2538 17.8499 13.8658 18.2305 13.8658 18.6999C13.8658 19.1697 14.2538 19.5499 14.7323 19.5499H33.7975C34.276 19.5499 34.6641 19.1697 34.6641 18.6999C34.6641 18.2305 34.276 17.8499 33.7975 17.8499Z" fill="#FFBB01"/>
<path d="M25.1305 23.8C25.1305 23.3306 24.7425 22.95 24.2639 22.95H6.93203C6.45345 22.95 6.06543 23.3306 6.06543 23.8C6.06543 24.2698 6.45345 24.65 6.93203 24.65H24.2639C24.7425 24.65 25.1305 24.2698 25.1305 23.8Z" fill="#FFBB01"/>
<path d="M33.7965 22.95H27.7311C27.2526 22.95 26.8646 23.3306 26.8646 23.8C26.8646 24.2698 27.2526 24.65 27.7311 24.65H33.7965C34.275 24.65 34.663 24.2698 34.663 23.8C34.663 23.3306 34.275 22.95 33.7965 22.95Z" fill="#FFBB01"/>
<path d="M15.598 28.9C16.0766 28.9 16.4646 28.5198 16.4646 28.05C16.4646 27.5806 16.0766 27.2 15.598 27.2H6.93203C6.45345 27.2 6.06543 27.5806 6.06543 28.05C6.06543 28.5198 6.45345 28.9 6.93203 28.9H15.598Z" fill="#FFBB01"/>
<path d="M19.0651 28.9H25.1305C25.609 28.9 25.997 28.5198 25.997 28.05C25.997 27.5806 25.609 27.2 25.1305 27.2H19.0651C18.5866 27.2 18.1986 27.5806 18.1986 28.05C18.1986 28.5198 18.5866 28.9 19.0651 28.9Z" fill="#FFBB01"/>
<path d="M38.9968 39.1C38.5182 39.1 38.1302 39.4806 38.1302 39.95V48.45C38.1302 48.9198 37.7422 49.3 37.2636 49.3H2.59979C2.12121 49.3 1.73319 48.9198 1.73319 48.45V2.55C1.73319 2.08059 2.12121 1.7 2.59979 1.7H37.2636C37.7422 1.7 38.1302 2.08059 38.1302 2.55V18.5132C38.1302 18.9826 38.5182 19.3632 38.9968 19.3632C39.4754 19.3632 39.8634 18.9826 39.8634 18.5132V2.55C39.8634 1.14177 38.6994 0 37.2636 0H2.59979C1.16407 0 0 1.14177 0 2.55V48.45C0 49.8586 1.16407 51 2.59979 51H37.2636C38.6994 51 39.8634 49.8586 39.8634 48.45V39.95C39.8634 39.4806 39.4754 39.1 38.9968 39.1Z" fill="#FFBB01"/>
</svg>
